<mxfile host="app.diagrams.net" modified="2020-03-19T09:40:23.643Z" agent="Mozilla/5.0 (X11; Linux x86_64; rv:74.0) Gecko/20100101 Firefox/74.0" etag="qcBIrar9yf5lH1NoUhQw" version="12.8.8" type="github">
  <diagram name="Page-1" id="9f46799a-70d6-7492-0946-bef42562c5a5">
    <mxGraphModel dx="1422" dy="775" grid="1" gridSize="10" guides="1" tooltips="1" connect="1" arrows="1" fold="1" page="1" pageScale="1" pageWidth="1100" pageHeight="850" background="#ffffff" math="0" shadow="0">
      <root>
        <mxCell id="0" />
        <mxCell id="1" parent="0" />
        <mxCell id="ov9_cvUJsl2ONZiXHLbC-1" value="main.cpp" style="ellipse;whiteSpace=wrap;html=1;aspect=fixed;" vertex="1" parent="1">
          <mxGeometry x="600" y="450" width="80" height="80" as="geometry" />
        </mxCell>
        <mxCell id="ov9_cvUJsl2ONZiXHLbC-2" value="Game-Class" style="whiteSpace=wrap;html=1;aspect=fixed;" vertex="1" parent="1">
          <mxGeometry x="280" y="660" width="80" height="80" as="geometry" />
        </mxCell>
        <mxCell id="ov9_cvUJsl2ONZiXHLbC-3" value="Loader-Class" style="whiteSpace=wrap;html=1;aspect=fixed;" vertex="1" parent="1">
          <mxGeometry x="250" y="260" width="80" height="80" as="geometry" />
        </mxCell>
        <mxCell id="ov9_cvUJsl2ONZiXHLbC-4" value="" style="endArrow=classic;html=1;exitX=0;exitY=1;exitDx=0;exitDy=0;entryX=1;entryY=0;entryDx=0;entryDy=0;" edge="1" parent="1" source="ov9_cvUJsl2ONZiXHLbC-1" target="ov9_cvUJsl2ONZiXHLbC-2">
          <mxGeometry width="50" height="50" relative="1" as="geometry">
            <mxPoint x="510" y="640" as="sourcePoint" />
            <mxPoint x="560" y="590" as="targetPoint" />
          </mxGeometry>
        </mxCell>
        <mxCell id="ov9_cvUJsl2ONZiXHLbC-5" value="" style="endArrow=classic;html=1;entryX=1;entryY=1;entryDx=0;entryDy=0;" edge="1" parent="1" target="ov9_cvUJsl2ONZiXHLbC-3">
          <mxGeometry width="50" height="50" relative="1" as="geometry">
            <mxPoint x="640" y="450" as="sourcePoint" />
            <mxPoint x="690" y="400" as="targetPoint" />
          </mxGeometry>
        </mxCell>
        <mxCell id="ov9_cvUJsl2ONZiXHLbC-6" value="GameWindow-Class" style="whiteSpace=wrap;html=1;aspect=fixed;" vertex="1" parent="1">
          <mxGeometry x="740" y="170" width="80" height="80" as="geometry" />
        </mxCell>
        <mxCell id="ov9_cvUJsl2ONZiXHLbC-7" value="" style="endArrow=classic;html=1;" edge="1" parent="1" target="ov9_cvUJsl2ONZiXHLbC-6">
          <mxGeometry width="50" height="50" relative="1" as="geometry">
            <mxPoint x="670" y="460" as="sourcePoint" />
            <mxPoint x="720" y="410" as="targetPoint" />
          </mxGeometry>
        </mxCell>
        <mxCell id="ov9_cvUJsl2ONZiXHLbC-8" value="Shader-Class" style="whiteSpace=wrap;html=1;aspect=fixed;" vertex="1" parent="1">
          <mxGeometry x="880" y="440" width="80" height="80" as="geometry" />
        </mxCell>
        <mxCell id="ov9_cvUJsl2ONZiXHLbC-9" value="Camera-Class" style="whiteSpace=wrap;html=1;aspect=fixed;" vertex="1" parent="1">
          <mxGeometry x="760" y="590" width="80" height="80" as="geometry" />
        </mxCell>
        <mxCell id="ov9_cvUJsl2ONZiXHLbC-12" value="" style="endArrow=classic;html=1;entryX=0;entryY=0.5;entryDx=0;entryDy=0;" edge="1" parent="1" target="ov9_cvUJsl2ONZiXHLbC-8">
          <mxGeometry width="50" height="50" relative="1" as="geometry">
            <mxPoint x="680" y="500" as="sourcePoint" />
            <mxPoint x="730" y="450" as="targetPoint" />
          </mxGeometry>
        </mxCell>
        <mxCell id="ov9_cvUJsl2ONZiXHLbC-13" value="KeyBoard-Class" style="whiteSpace=wrap;html=1;aspect=fixed;" vertex="1" parent="1">
          <mxGeometry x="880" y="280" width="80" height="80" as="geometry" />
        </mxCell>
        <mxCell id="ov9_cvUJsl2ONZiXHLbC-14" value="" style="endArrow=classic;html=1;entryX=0;entryY=0.75;entryDx=0;entryDy=0;" edge="1" parent="1" target="ov9_cvUJsl2ONZiXHLbC-13">
          <mxGeometry width="50" height="50" relative="1" as="geometry">
            <mxPoint x="680" y="480" as="sourcePoint" />
            <mxPoint x="730" y="430" as="targetPoint" />
          </mxGeometry>
        </mxCell>
        <mxCell id="ov9_cvUJsl2ONZiXHLbC-15" value="" style="endArrow=classic;html=1;entryX=0;entryY=0;entryDx=0;entryDy=0;" edge="1" parent="1" target="ov9_cvUJsl2ONZiXHLbC-9">
          <mxGeometry width="50" height="50" relative="1" as="geometry">
            <mxPoint x="650" y="530" as="sourcePoint" />
            <mxPoint x="700" y="480" as="targetPoint" />
          </mxGeometry>
        </mxCell>
        <mxCell id="ov9_cvUJsl2ONZiXHLbC-16" value="Mouse-Class" style="whiteSpace=wrap;html=1;aspect=fixed;" vertex="1" parent="1">
          <mxGeometry x="580" y="200" width="80" height="80" as="geometry" />
        </mxCell>
        <mxCell id="ov9_cvUJsl2ONZiXHLbC-17" value="" style="endArrow=classic;html=1;" edge="1" parent="1" target="ov9_cvUJsl2ONZiXHLbC-16">
          <mxGeometry width="50" height="50" relative="1" as="geometry">
            <mxPoint x="640" y="450" as="sourcePoint" />
            <mxPoint x="690" y="400" as="targetPoint" />
          </mxGeometry>
        </mxCell>
        <mxCell id="ov9_cvUJsl2ONZiXHLbC-22" value="" style="shape=link;html=1;entryX=0;entryY=0.5;entryDx=0;entryDy=0;" edge="1" parent="1" target="ov9_cvUJsl2ONZiXHLbC-13">
          <mxGeometry width="50" height="50" relative="1" as="geometry">
            <mxPoint x="330" y="320" as="sourcePoint" />
            <mxPoint x="380" y="270" as="targetPoint" />
          </mxGeometry>
        </mxCell>
        <mxCell id="ov9_cvUJsl2ONZiXHLbC-23" value="" style="shape=link;html=1;entryX=0.013;entryY=0.338;entryDx=0;entryDy=0;entryPerimeter=0;" edge="1" parent="1" target="ov9_cvUJsl2ONZiXHLbC-8">
          <mxGeometry width="50" height="50" relative="1" as="geometry">
            <mxPoint x="330" y="300" as="sourcePoint" />
            <mxPoint x="380" y="250" as="targetPoint" />
          </mxGeometry>
        </mxCell>
        <mxCell id="ov9_cvUJsl2ONZiXHLbC-25" value="" style="shape=link;html=1;exitX=0.413;exitY=0;exitDx=0;exitDy=0;exitPerimeter=0;" edge="1" parent="1" source="ov9_cvUJsl2ONZiXHLbC-2">
          <mxGeometry width="50" height="50" relative="1" as="geometry">
            <mxPoint x="250" y="390" as="sourcePoint" />
            <mxPoint x="300" y="340" as="targetPoint" />
          </mxGeometry>
        </mxCell>
        <mxCell id="ov9_cvUJsl2ONZiXHLbC-26" value="Texture-Class" style="whiteSpace=wrap;html=1;aspect=fixed;" vertex="1" parent="1">
          <mxGeometry x="80" y="460" width="80" height="80" as="geometry" />
        </mxCell>
        <mxCell id="ov9_cvUJsl2ONZiXHLbC-27" value="Object-Class" style="whiteSpace=wrap;html=1;aspect=fixed;" vertex="1" parent="1">
          <mxGeometry x="10" y="590" width="80" height="80" as="geometry" />
        </mxCell>
        <mxCell id="ov9_cvUJsl2ONZiXHLbC-28" value="World-Class" style="whiteSpace=wrap;html=1;aspect=fixed;" vertex="1" parent="1">
          <mxGeometry x="110" y="720" width="80" height="80" as="geometry" />
        </mxCell>
        <mxCell id="ov9_cvUJsl2ONZiXHLbC-29" value="" style="endArrow=classic;html=1;exitX=0;exitY=1;exitDx=0;exitDy=0;entryX=1;entryY=1;entryDx=0;entryDy=0;" edge="1" parent="1" source="ov9_cvUJsl2ONZiXHLbC-2" target="ov9_cvUJsl2ONZiXHLbC-28">
          <mxGeometry width="50" height="50" relative="1" as="geometry">
            <mxPoint x="250" y="830" as="sourcePoint" />
            <mxPoint x="300" y="780" as="targetPoint" />
          </mxGeometry>
        </mxCell>
        <mxCell id="ov9_cvUJsl2ONZiXHLbC-30" value="" style="endArrow=classic;html=1;" edge="1" parent="1">
          <mxGeometry width="50" height="50" relative="1" as="geometry">
            <mxPoint x="175" y="720" as="sourcePoint" />
            <mxPoint x="65" y="670" as="targetPoint" />
          </mxGeometry>
        </mxCell>
        <mxCell id="ov9_cvUJsl2ONZiXHLbC-31" value="" style="endArrow=classic;html=1;entryX=1;entryY=1;entryDx=0;entryDy=0;" edge="1" parent="1" target="ov9_cvUJsl2ONZiXHLbC-26">
          <mxGeometry width="50" height="50" relative="1" as="geometry">
            <mxPoint x="180" y="720" as="sourcePoint" />
            <mxPoint x="230" y="670" as="targetPoint" />
          </mxGeometry>
        </mxCell>
      </root>
    </mxGraphModel>
  </diagram>
</mxfile>
